<svg width="23" height="24" viewBox="0 0 23 24" fill="none" xmlns="http://www.w3.org/2000/svg">
<path d="M20.0364 18.7522H3.53638V11.0856L11.7864 2.93973L20.0364 11.0856V18.7522Z" fill="#E8EAF6"/>
<path d="M18.6614 10.1272L16.3697 7.73139V4.37723H18.6614V10.1272ZM3.53638 18.7522H20.0364V21.1481H3.53638V18.7522Z" fill="#C5CAE9"/>
<path d="M11.7864 2.12514L2.61975 11.0376L3.53642 12.0918L11.7864 4.08972L20.0364 12.0918L20.9531 11.0376L11.7864 2.12514Z" fill="#B71C1C"/>
<path d="M9.03638 13.4814H14.5364V21.1481H9.03638V13.4814Z" fill="#D84315"/>
<path d="M10.4114 8.21056H13.1614V11.0856H10.4114V8.21056Z" fill="#01579B"/>
<path d="M13.3905 17.0751C13.253 17.0751 13.1614 17.171 13.1614 17.3147V18.2731C13.1614 18.4168 13.253 18.5126 13.3905 18.5126C13.528 18.5126 13.6197 18.4168 13.6197 18.2731V17.3147C13.6197 17.171 13.528 17.0751 13.3905 17.0751Z" fill="#FF8A65"/>
</svg>
